<?xml version="1.0" encoding="utf-8"?><svg xmlns="http://www.w3.org/2000/svg" xmlns:xlink="http://www.w3.org/1999/xlink"><symbol viewBox="0 0 9 13" id="arrow-down" xmlns="http://www.w3.org/2000/svg">
    <g clip-path="url(#aclip0_9_40)">
        <path d="M4.50012 9.75C4.69202 9.75 4.88402 9.67065 5.03027 9.51196L8.78027 5.44946C9.07324 5.13208 9.07324 4.61792 8.78027 4.30054C8.4873 3.98315 8.0127 3.98315 7.71973 4.30054L4.50012 7.78984L1.27981 4.30117C0.986838 3.98379 0.512229 3.98379 0.21926 4.30117C-0.0737085 4.61855 -0.0737085 5.13271 0.21926 5.4501L3.96926 9.5126C4.11574 9.67129 4.30793 9.75 4.50012 9.75Z"/>
    </g>
    <defs>
        <clipPath id="aclip0_9_40">
            <rect width="9" height="13" transform="matrix(-1 0 0 1 9 0)"/>
        </clipPath>
    </defs>
</symbol><symbol viewBox="0 0 20 20" id="facebook" xmlns="http://www.w3.org/2000/svg">
    <path d="M9.999 0C4.477 0 0 4.477 0 9.999C0 14.989 3.656 19.125 8.437 19.878V12.89H5.897V9.999H8.437V7.796C8.437 5.288 9.93 3.905 12.213 3.905C13.307 3.905 14.453 4.1 14.453 4.1V6.559H13.189C11.949 6.559 11.561 7.331 11.561 8.122V9.997H14.332L13.889 12.888H11.561V19.876C16.342 19.127 19.998 14.99 19.998 9.999C19.998 4.477 15.521 0 9.999 0Z"/>
</symbol><symbol viewBox="0 0 196 501" id="hero-overlay" xmlns="http://www.w3.org/2000/svg">
    <rect x="92.4358" y="314.033" width="127.863" height="123.867" transform="rotate(42.3449 92.4358 314.033)" stroke-width="12"/>
    <rect x="92.4358" y="212.355" width="127.863" height="123.867" transform="rotate(42.3449 92.4358 212.355)" stroke-width="12"/>
    <rect x="92.4358" y="110.678" width="127.863" height="123.867" transform="rotate(42.3449 92.4358 110.678)" stroke-width="12"/>
    <rect x="92.4358" y="9" width="127.863" height="123.867" transform="rotate(42.3449 92.4358 9)" stroke-width="12"/>
</symbol><symbol viewBox="0 0 18 19" id="instagram" xmlns="http://www.w3.org/2000/svg">
    <path d="M8.997 4.372C6.443 4.372 4.374 6.442 4.374 8.995C4.374 11.549 6.443 13.619 8.997 13.619C11.549 13.619 13.62 11.549 13.62 8.995C13.62 6.442 11.549 4.372 8.997 4.372ZM8.997 11.999C7.338 11.999 5.993 10.654 5.993 8.996C5.993 7.337 7.338 5.993 8.997 5.993C10.656 5.993 11.999 7.337 11.999 8.996C11.999 10.654 10.656 11.999 8.997 11.999Z"/>
    <path d="M13.804 5.28C14.3994 5.28 14.882 4.79736 14.882 4.202C14.882 3.60664 14.3994 3.124 13.804 3.124C13.2086 3.124 12.726 3.60664 12.726 4.202C12.726 4.79736 13.2086 5.28 13.804 5.28Z"/>
    <path d="M17.531 3.106C17.062 1.897 16.107 0.941 14.898 0.474C14.199 0.211 13.46 0.0699999 12.712 0.0539999C11.749 0.0119999 11.444 0 9.002 0C6.56 0 6.247 -1.00583e-07 5.292 0.0539999C4.546 0.0689999 3.807 0.21 3.108 0.474C1.898 0.941 0.943 1.897 0.475 3.106C0.212 3.806 0.071 4.544 0.056 5.292C0.013 6.254 0 6.559 0 9.002C0 11.444 -7.45058e-09 11.755 0.056 12.712C0.071 13.46 0.212 14.198 0.475 14.899C0.944 16.107 1.899 17.063 3.109 17.531C3.805 17.803 4.544 17.957 5.294 17.981C6.257 18.023 6.562 18.036 9.004 18.036C11.446 18.036 11.759 18.036 12.714 17.981C13.461 17.966 14.2 17.824 14.9 17.562C16.109 17.093 17.064 16.138 17.533 14.929C17.796 14.229 17.937 13.491 17.952 12.743C17.995 11.781 18.008 11.476 18.008 9.033C18.008 6.59 18.008 6.28 17.952 5.323C17.939 4.565 17.799 3.814 17.531 3.106ZM16.313 12.638C16.306 13.214 16.202 13.785 16.002 14.326C15.697 15.113 15.076 15.735 14.29 16.037C13.755 16.236 13.191 16.34 12.62 16.348C11.67 16.392 11.402 16.403 8.966 16.403C6.528 16.403 6.279 16.403 5.311 16.348C4.742 16.341 4.176 16.236 3.642 16.037C2.853 15.736 2.228 15.114 1.923 14.326C1.727 13.792 1.621 13.227 1.612 12.657C1.569 11.707 1.559 11.439 1.559 9.003C1.559 6.566 1.559 6.317 1.612 5.348C1.619 4.772 1.723 4.202 1.923 3.661C2.228 2.872 2.853 2.251 3.642 1.949C4.176 1.751 4.742 1.646 5.311 1.638C6.262 1.595 6.529 1.583 8.966 1.583C11.403 1.583 11.653 1.583 12.62 1.638C13.191 1.645 13.755 1.75 14.29 1.949C15.076 2.252 15.697 2.874 16.002 3.661C16.198 4.195 16.304 4.76 16.313 5.33C16.356 6.281 16.367 6.548 16.367 8.985C16.367 11.421 16.367 11.683 16.324 12.639H16.313V12.638Z"/>
</symbol><symbol viewBox="0 0 184 41" id="partners-01" xmlns="http://www.w3.org/2000/svg">
    <path d="M0 9.84777H4.34551L8.96262 23.3954C10.3885 18.9033 13.8513 9.13474 15.1414 6.71042C17.1105 2.93134 20.5733 1.22006 24.8509 1.86179L24.3756 6.14C21.7276 5.71218 19.8943 6.56782 18.8079 8.84952C16.6352 12.9138 11.2033 30.6684 11.1354 30.811L10.8638 31.0249L7.33305 31.0962L0 9.84777Z"/>
    <path d="M27.2953 13.27H24.5793V9.41962H34.2889V13.27H31.3692V26.675H27.2953V13.27ZM24.5793 27.3168H34.2889V31.1672H24.5793V27.3168Z"/>
    <path d="M42.5737 9.84747H46.7834L53.3017 22.3969V9.84747H57.3757V31.0246L57.104 31.1672H53.1659L46.6477 18.5465V31.1672H42.5737V9.84747Z"/>
    <path d="M78.2208 18.4034H62.4683V22.539H78.2208V18.4034Z"/>
    <path fill-rule="evenodd" clip-rule="evenodd" d="M183.198 0.619446H89.9336V40.59H183.198V0.619446ZM165.105 23.6183V26.8983H174.271V31.1765H160.963V23.6183H158.587V19.3401H171.216V23.6183H165.105ZM165.105 13.7795H173.66V9.50134H160.963V18.5569H165.105V13.7795ZM96.5955 14.1351H102.706V31.1766H106.848V14.1351H113.027V9.78558H96.5955V14.1351ZM145.482 21.2666V25.0457H150.099C149.012 26.1866 147.654 26.8996 146.025 26.8996C142.698 26.8996 139.982 24.0475 139.982 20.5536C139.982 17.0597 142.698 14.2076 146.025 14.2076C148.333 14.2076 150.438 15.5624 151.457 17.7728L155.055 15.705C153.29 12.1398 149.827 9.92938 146.025 9.92938C140.389 9.92938 135.908 14.7067 135.908 20.5536C135.908 26.4005 140.457 31.2491 146.025 31.2491C149.895 31.2491 153.494 29.1813 155.123 25.117V21.2666H145.482ZM122.329 10.1427L126.131 10.0714L133.396 31.3198H131.767H130.341H129.051H119.613H117.508H115.132C117.508 25.9007 122.329 10.1427 122.329 10.1427ZM124.366 17.7721C123.619 20.1251 122.329 23.9755 121.039 27.4694H127.693L124.366 17.7721Z"/>
</symbol><symbol viewBox="0 0 136 33" id="partners-02" xmlns="http://www.w3.org/2000/svg">
    <path d="M23.8558 1.81183H18.4755L11.9874 18.651L5.49944 1.81183H0.198242L11.9874 32.3838L23.8558 1.81183Z"/>
    <path d="M35.8038 1.81183H30.8191V32.3838H35.8038V1.81183Z"/>
    <path d="M53.6852 24.5365C59.6985 24.5365 64.6832 19.4684 64.6832 13.1741C64.6832 6.96165 59.7776 1.81183 53.6852 1.81183C47.5928 1.81183 42.6873 6.96165 42.6873 13.1741C42.6873 19.4684 47.6719 24.5365 53.6852 24.5365ZM53.6852 6.87991C57.0875 6.87991 59.7776 9.65918 59.7776 13.1741C59.7776 16.6891 57.0875 19.4684 53.6852 19.4684C50.283 19.4684 47.5928 16.6891 47.5928 13.1741C47.5928 9.65918 50.283 6.87991 53.6852 6.87991Z"/>
    <path d="M63.3374 27.3155H43.7942V32.3836H63.3374V27.3155Z"/>
    <path d="M87.4697 27.3158H76.5508V1.81183H71.6453V32.3838H87.4697V27.3158Z"/>
    <path d="M114.529 27.3158H99.7327V19.6319H111.997V14.5638H99.7327V6.96165H114.529V1.81183H94.748V32.3838H114.529V27.3158Z"/>
    <path d="M125.447 32.3838H130.353V6.96165H135.258V1.81183H120.463V6.96165H125.447V32.3838Z"/>
    <path d="M53.6849 25.8442C60.4103 25.8442 65.8697 20.204 65.8697 13.2558C65.8697 6.30759 60.4103 0.667297 53.6849 0.667297C46.9595 0.667297 41.5001 6.30759 41.5001 13.2558C41.421 20.204 46.9595 25.8442 53.6849 25.8442ZM53.6849 1.32125C60.0938 1.32125 65.2367 6.63457 65.2367 13.2558C65.2367 19.7952 60.0938 25.1903 53.6849 25.1903C47.276 25.1903 42.1331 19.877 42.1331 13.2558C42.1331 6.63457 47.276 1.32125 53.6849 1.32125Z"/>
</symbol><symbol viewBox="0 0 181 48" id="partners-03" xmlns="http://www.w3.org/2000/svg">
    <path d="M22.6548 27.0569C22.4827 29.4351 21.6023 31.3072 20.0135 32.6734C18.4348 34.0396 16.3501 34.7227 13.7594 34.7227C10.9258 34.7227 8.69441 33.7714 7.06511 31.8689C5.44593 29.9562 4.63634 27.3352 4.63634 24.0058V22.6548C4.63634 20.5296 5.01078 18.6574 5.75965 17.0382C6.50852 15.4191 7.57616 14.1794 8.96258 13.3192C10.3591 12.4489 11.9783 12.0137 13.8201 12.0137C16.3703 12.0137 18.4247 12.6968 19.9831 14.063C21.5416 15.4292 22.4422 17.3469 22.6851 19.8161H18.1312C18.0199 18.3892 17.6201 17.357 16.932 16.7195C16.2539 16.0718 15.2167 15.748 13.8201 15.748C12.3021 15.748 11.1637 16.2944 10.4047 17.3874C9.65579 18.4702 9.27124 20.1552 9.251 22.4422V24.112C9.251 26.5003 9.61025 28.246 10.3288 29.349C11.0574 30.4521 12.2009 31.0036 13.7594 31.0036C15.1661 31.0036 16.2135 30.6849 16.9016 30.0473C17.5999 29.3996 17.9996 28.4028 18.1008 27.0569H22.6548Z"/>
    <path d="M45.1603 24.8406H36.4168V30.7608H46.6783V34.4191H31.8628V12.3173H46.6479V16.006H36.4168V21.2734H45.1603V24.8406Z"/>
    <path d="M68.0454 29.8652H60.0608L58.5428 34.4191H53.7005L61.9279 12.3173H66.1479L74.4209 34.4191H69.5785L68.0454 29.8652ZM61.2904 26.1765H66.8158L64.0379 17.9035L61.2904 26.1765Z"/>
    <path d="M97.5185 16.006H90.7483V34.4191H86.1943V16.006H79.5152V12.3173H97.5185V16.006Z"/>
    <path d="M124.335 34.4191H119.781V24.9469H110.901V34.4191H106.347V12.3173H110.901V21.2734H119.781V12.3173H124.335V34.4191Z"/>
    <path d="M147.842 24.8406H139.099V30.7608H149.36V34.4191H134.545V12.3173H149.33V16.006H139.099V21.2734H147.842V24.8406Z"/>
    <path d="M169.711 28.6204C169.711 27.7602 169.407 27.1024 168.8 26.647C168.193 26.1815 167.1 25.6958 165.521 25.1898C163.942 24.6737 162.692 24.1677 161.771 23.6718C159.262 22.3157 158.007 20.4891 158.007 18.1919C158.007 16.9978 158.341 15.9352 159.009 15.0041C159.687 14.063 160.653 13.3293 161.908 12.8031C163.173 12.2768 164.59 12.0137 166.158 12.0137C167.737 12.0137 169.144 12.3021 170.378 12.879C171.613 13.4457 172.569 14.2502 173.247 15.2926C173.936 16.3349 174.28 17.5189 174.28 18.8446H169.726C169.726 17.8326 169.407 17.0484 168.769 16.4918C168.132 15.925 167.236 15.6417 166.083 15.6417C164.969 15.6417 164.104 15.8795 163.487 16.3551C162.869 16.8207 162.561 17.438 162.561 18.2071C162.561 18.9256 162.92 19.5277 163.639 20.0135C164.367 20.4992 165.435 20.9546 166.842 21.3797C169.432 22.1589 171.32 23.1253 172.504 24.279C173.688 25.4327 174.28 26.8697 174.28 28.5901C174.28 30.5027 173.556 32.0055 172.109 33.0985C170.662 34.1813 168.714 34.7227 166.265 34.7227C164.565 34.7227 163.016 34.414 161.62 33.7967C160.223 33.1693 159.156 32.3142 158.417 31.2313C157.688 30.1485 157.324 28.8937 157.324 27.4668H161.893C161.893 29.9056 163.35 31.1251 166.265 31.1251C167.348 31.1251 168.193 30.9075 168.8 30.4724C169.407 30.0271 169.711 29.4098 169.711 28.6204Z"/>
    <path d="M0 0H180.978V2.22059H0V0Z"/>
    <path d="M0 45.522H180.978V47.7426H0V45.522Z"/>
</symbol><symbol viewBox="0 0 166 66" id="partners-04" xmlns="http://www.w3.org/2000/svg">
    <path d="M16.5686 15.736C7.56398 15.736 0.236084 23.4407 0.236084 32.9083C0.236084 42.3758 7.56398 50.0805 16.5686 50.0805C25.5733 50.0805 32.9012 42.3758 32.9012 32.9083C32.9012 23.4407 25.5733 15.736 16.5686 15.736ZM25.449 40.7435C24.9522 41.2005 24.3312 41.6576 23.7102 42.0494C23.0892 42.5064 22.344 42.8329 21.5988 43.2247C20.8536 43.5512 19.9842 43.8123 19.1148 44.0082C18.2453 44.2041 17.3138 44.3346 16.3202 44.3346C14.8919 44.3346 13.5878 44.1388 12.5321 43.8123C11.4763 43.4858 10.6069 43.0288 9.92381 42.3758C9.2407 41.7882 8.7439 41.07 8.43339 40.2212C8.12289 39.3723 7.93659 38.5235 7.93659 37.5441C7.93659 36.173 8.2471 35.063 8.806 34.1488C9.36491 33.2347 10.1722 32.4512 11.1037 31.7983C10.6069 31.2759 10.2343 30.623 9.92381 29.8395C9.61331 29.1213 9.42701 28.3377 9.42701 27.4236C9.42701 26.5095 9.61331 25.5954 9.92381 24.8119C10.2343 24.0283 10.7311 23.3101 11.29 22.7225C11.911 22.1348 12.5942 21.6778 13.4015 21.3513C14.2088 21.0248 15.0782 20.8942 16.0097 20.8942C17.0654 20.8942 17.9969 21.0901 18.8043 21.4166C19.6737 21.743 20.3568 22.2001 20.9778 22.7877C21.5988 23.3754 22.0335 24.0936 22.344 24.8771C22.6545 25.6607 22.8408 26.5748 22.8408 27.5542C22.8408 28.6642 22.5303 29.6436 21.9714 30.4924C21.4125 31.3412 20.7294 32.0594 19.9221 32.7124L22.7787 35.2588C23.0271 34.9977 23.2755 34.7365 23.5239 34.41C23.7723 34.1489 24.0828 33.7571 24.4554 33.2347L28.6783 37.0218C28.2436 37.6747 27.7468 38.3276 27.1879 38.9153C26.629 39.6335 26.0701 40.2211 25.449 40.7435ZM23.8344 37.6747C23.4618 38.0665 23.0271 38.3929 22.6545 38.7194C21.9093 39.2418 20.9778 39.7641 19.9221 40.2212C18.8664 40.6782 17.6243 40.8741 16.196 40.8741C15.6992 40.8741 15.2024 40.8088 14.6435 40.6782C14.1467 40.5476 13.6499 40.3517 13.2152 40.0906C12.7805 39.8294 12.4079 39.4377 12.1594 38.9806C11.8489 38.5235 11.7248 37.9359 11.7248 37.2829C11.7248 36.3035 11.9732 35.5853 12.5321 34.9977C13.0289 34.41 13.7741 33.8877 14.7677 33.3653L15.6992 32.843L20.6673 37.1523L21.2883 36.6953L16.4444 32.4512C17.6243 31.7983 18.5558 31.08 19.239 30.2965C19.9221 29.513 20.2947 28.5989 20.2947 27.4889C20.2947 26.9012 20.1705 26.3789 19.9842 25.9219C19.7358 25.4648 19.4874 25.0077 19.0527 24.6813C18.68 24.3548 18.2453 24.0936 17.6864 23.8977C17.1896 23.7019 16.6307 23.6366 16.0097 23.6366C15.5129 23.6366 15.0161 23.7019 14.5193 23.8977C14.0225 24.0936 13.5878 24.3548 13.2152 24.6813C12.8426 25.0077 12.5321 25.4648 12.2837 25.9219C12.0353 26.3789 11.9732 26.9666 11.9732 27.5542C11.9732 28.403 12.1595 29.1212 12.5942 29.7089C13.0289 30.3618 13.5878 30.9494 14.333 31.6024L15.1403 32.3206L14.3951 32.7124C13.9604 32.9736 13.4636 33.2347 13.091 33.4959C12.6563 33.8224 12.3458 34.1488 12.0353 34.4753C11.7248 34.8671 11.4763 35.2589 11.3521 35.7159C11.1658 36.173 11.1037 36.6953 11.1037 37.2177C11.1037 37.9359 11.2279 38.5888 11.5384 39.1765C11.8489 39.7641 12.2215 40.1559 12.7184 40.5476C13.2152 40.8741 13.7741 41.2006 14.3951 41.3312C15.0161 41.527 15.6992 41.5923 16.3823 41.5923C17.8106 41.5923 19.1148 41.3311 20.2947 40.8741C21.4125 40.417 22.4061 39.8294 23.2134 39.2417C24.1449 38.5235 24.9523 37.74 25.6975 36.8259L25.0765 36.3688C24.5796 36.8912 24.207 37.283 23.8344 37.6747ZM14.7677 31.08C13.8983 30.3618 13.4015 29.7089 13.091 29.1865C12.8426 28.6642 12.7184 28.1418 12.7184 27.6195C12.7184 26.7054 13.0289 25.9218 13.5878 25.3342C14.2088 24.7466 14.954 24.4201 15.8855 24.4201C16.3202 24.4201 16.7549 24.4854 17.1275 24.616C17.5622 24.7466 17.8727 24.9424 18.2454 25.2036C18.5559 25.4648 18.8042 25.7912 18.9906 26.183C19.1769 26.5748 19.3011 27.0319 19.3011 27.5542C19.3011 28.5989 18.9906 29.4477 18.3695 30.1006C17.7485 30.7536 16.8791 31.3412 15.6992 31.9942L14.7677 31.08ZM16.9412 28.403C17.1275 28.1418 17.2517 27.8154 17.2517 27.4236C17.2517 26.5748 16.8791 26.183 16.0718 26.183C15.6992 26.183 15.4508 26.3136 15.2024 26.5095C14.954 26.7707 14.8919 27.0318 14.8919 27.4236C14.8919 27.7501 14.954 28.0112 15.0782 28.3377C15.2024 28.5989 15.5129 28.9253 15.8855 29.3171C16.3823 28.9906 16.6928 28.6642 16.9412 28.403ZM14.4572 37.1523C14.4572 37.6747 14.6435 38.0665 15.0782 38.3277C15.4508 38.5888 15.9476 38.7194 16.4444 38.7194C16.7549 38.7194 17.0654 38.7194 17.438 38.6541C17.7485 38.5888 18.059 38.5235 18.3695 38.3929L15.3266 35.6506C14.7056 36.0424 14.4572 36.5647 14.4572 37.1523Z"/>
    <path d="M17.2515 0H15.8853V17.3028H17.2515V0Z"/>
    <path d="M17.2515 46.6854H15.8853V65.8817H17.2515V46.6854Z"/>
    <path d="M58.3 29.934C55.8736 29.934 53.6784 29.4026 51.7142 28.3396C49.7732 27.2535 48.248 25.7746 47.1389 23.9029C46.0297 22.008 45.4751 19.8821 45.4751 17.5251C45.4751 15.1681 46.0297 13.0538 47.1389 11.182C48.248 9.28718 49.7847 7.80827 51.7489 6.74531C53.713 5.65925 55.9083 5.11621 58.3346 5.11621C60.2295 5.11621 61.9625 5.43972 63.5339 6.08674C65.1052 6.71065 66.4455 7.64652 67.5546 8.89434L65.3016 11.078C63.4761 9.16008 61.2 8.20111 58.4733 8.20111C56.6708 8.20111 55.0417 8.60549 53.586 9.41427C52.1302 10.223 50.9863 11.3438 50.1544 12.7765C49.3457 14.186 48.9413 15.7689 48.9413 17.5251C48.9413 19.2813 49.3457 20.8758 50.1544 22.3084C50.9863 23.718 52.1302 24.8272 53.586 25.636C55.0417 26.4448 56.6708 26.8491 58.4733 26.8491C61.1769 26.8491 63.453 25.8786 65.3016 23.9375L67.5546 26.1212C66.4455 27.3691 65.0937 28.3165 63.4992 28.9635C61.9279 29.6105 60.1948 29.934 58.3 29.934Z"/>
    <path d="M74.1631 14.3709C74.7408 13.3079 75.5958 12.4992 76.7281 11.9446C77.8604 11.39 79.2353 11.1127 80.8528 11.1127V14.3362C80.668 14.3131 80.4138 14.3016 80.0903 14.3016C78.2879 14.3016 76.8667 14.8446 75.8269 15.9307C74.8101 16.9936 74.3018 18.5188 74.3018 20.506V29.6567H70.9742V11.286H74.1631V14.3709Z"/>
    <path d="M100.348 20.5754C100.348 20.8295 100.325 21.1646 100.279 21.5806H85.374C85.582 23.1981 86.2868 24.5037 87.4884 25.4973C88.7131 26.4679 90.2267 26.9531 92.0291 26.9531C94.2243 26.9531 95.9921 26.2137 97.3323 24.7348L99.1694 26.8838C98.3375 27.8543 97.2977 28.5938 96.0499 29.1022C94.8251 29.6105 93.4502 29.8647 91.9251 29.8647C89.9841 29.8647 88.2625 29.4719 86.7605 28.6862C85.2585 27.8774 84.0916 26.7567 83.2597 25.324C82.4509 23.8913 82.0465 22.2738 82.0465 20.4714C82.0465 18.6921 82.4393 17.0861 83.225 15.6534C84.0338 14.2207 85.1314 13.1115 86.5179 12.3259C87.9275 11.5171 89.5103 11.1127 91.2665 11.1127C93.0227 11.1127 94.5825 11.5171 95.9459 12.3259C97.3324 13.1115 98.4069 14.2207 99.1694 15.6534C99.9551 17.0861 100.348 18.7267 100.348 20.5754ZM91.2665 13.9203C89.6721 13.9203 88.3318 14.4056 87.2458 15.3761C86.1828 16.3466 85.5589 17.6176 85.374 19.1889H97.159C96.9742 17.6407 96.3387 16.3813 95.2526 15.4108C94.1897 14.4171 92.861 13.9203 91.2665 13.9203Z"/>
    <path d="M110.111 11.1127C112.652 11.1127 114.594 11.7366 115.934 12.9844C117.297 14.2323 117.979 16.0924 117.979 18.565V29.6567H114.825V27.2304C114.27 28.0854 113.473 28.744 112.433 29.2061C111.416 29.6452 110.203 29.8647 108.793 29.8647C106.737 29.8647 105.085 29.3679 103.837 28.3743C102.612 27.3806 102 26.075 102 24.4575C102 22.8399 102.589 21.5459 103.768 20.5754C104.946 19.5817 106.818 19.0849 109.383 19.0849H114.651V18.4263C114.651 16.9936 114.235 15.896 113.403 15.1335C112.572 14.3709 111.347 13.9896 109.729 13.9896C108.643 13.9896 107.58 14.1745 106.54 14.5442C105.501 14.8908 104.623 15.3645 103.906 15.9653L102.52 13.4697C103.467 12.7071 104.599 12.1294 105.917 11.7366C107.234 11.3207 108.632 11.1127 110.111 11.1127ZM109.348 27.2997C110.619 27.2997 111.717 27.0224 112.641 26.4679C113.565 25.8902 114.235 25.0814 114.651 24.0415V21.4766H109.521C106.702 21.4766 105.293 22.424 105.293 24.3188C105.293 25.2431 105.651 25.971 106.367 26.5025C107.083 27.034 108.077 27.2997 109.348 27.2997Z"/>
    <path d="M133.426 28.5822C132.941 28.9982 132.34 29.3217 131.624 29.5528C130.907 29.7607 130.168 29.8647 129.405 29.8647C127.557 29.8647 126.124 29.3679 125.107 28.3743C124.091 27.3806 123.582 25.9595 123.582 24.1109V14.0243H120.463V11.286H123.582V7.26524H126.91V11.286H132.178V14.0243H126.91V23.9722C126.91 24.9659 127.152 25.7284 127.638 26.2599C128.146 26.7914 128.862 27.0571 129.787 27.0571C130.803 27.0571 131.67 26.7683 132.386 26.1906L133.426 28.5822Z"/>
    <path d="M152.403 20.5754C152.403 20.8295 152.38 21.1646 152.334 21.5806H137.429C137.637 23.1981 138.342 24.5037 139.543 25.4973C140.768 26.4679 142.282 26.9531 144.084 26.9531C146.279 26.9531 148.047 26.2137 149.387 24.7348L151.224 26.8838C150.392 27.8543 149.353 28.5938 148.105 29.1022C146.88 29.6105 145.505 29.8647 143.98 29.8647C142.039 29.8647 140.317 29.4719 138.815 28.6862C137.313 27.8774 136.146 26.7567 135.315 25.324C134.506 23.8913 134.101 22.2738 134.101 20.4714C134.101 18.6921 134.494 17.0861 135.28 15.6534C136.089 14.2207 137.186 13.1115 138.573 12.3259C139.982 11.5171 141.565 11.1127 143.321 11.1127C145.078 11.1127 146.637 11.5171 148.001 12.3259C149.387 13.1115 150.462 14.2207 151.224 15.6534C152.01 17.0861 152.403 18.7267 152.403 20.5754ZM143.321 13.9203C141.727 13.9203 140.387 14.4056 139.301 15.3761C138.238 16.3466 137.614 17.6176 137.429 19.1889H149.214C149.029 17.6407 148.394 16.3813 147.308 15.4108C146.245 14.4171 144.916 13.9203 143.321 13.9203Z"/>
    <path d="M159.172 14.3709C159.75 13.3079 160.605 12.4992 161.737 11.9446C162.87 11.39 164.245 11.1127 165.862 11.1127V14.3362C165.677 14.3131 165.423 14.3016 165.1 14.3016C163.297 14.3016 161.876 14.8446 160.836 15.9307C159.819 16.9936 159.311 18.5188 159.311 20.506V29.6567H155.984V11.286H159.172V14.3709Z"/>
    <path d="M50.917 41.0902V49.5476H63.0833V52.5286H50.917V62.3378H47.4508V38.0746H64.5737V41.0902H50.917Z"/>
    <path d="M73.9744 43.7938C76.5162 43.7938 78.4573 44.4177 79.7976 45.6655C81.1609 46.9134 81.8426 48.7735 81.8426 51.2461V62.3378H78.6884V59.9115C78.1338 60.7665 77.3366 61.4251 76.2967 61.8872C75.28 62.3263 74.0668 62.5458 72.6572 62.5458C70.6006 62.5458 68.9484 62.049 67.7006 61.0554C66.4759 60.0617 65.8635 58.7561 65.8635 57.1386C65.8635 55.521 66.4528 54.227 67.6313 53.2565C68.8098 52.2628 70.6815 51.766 73.2465 51.766H78.5151V51.1074C78.5151 49.6747 78.0991 48.5771 77.2672 47.8146C76.4354 47.052 75.2107 46.6707 73.5931 46.6707C72.507 46.6707 71.4441 46.8556 70.4042 47.2253C69.3644 47.5719 68.4863 48.0456 67.7699 48.6464L66.3835 46.1508C67.3309 45.3882 68.4632 44.8105 69.7803 44.4177C71.0975 44.0018 72.4955 43.7938 73.9744 43.7938ZM73.2118 59.9808C74.4828 59.9808 75.5804 59.7035 76.5047 59.149C77.429 58.5713 78.0991 57.7625 78.5151 56.7226V54.1577H73.3851C70.566 54.1577 69.1564 55.1051 69.1564 56.9999C69.1564 57.9242 69.5146 58.6521 70.2309 59.1836C70.9473 59.7151 71.9409 59.9808 73.2118 59.9808Z"/>
    <path d="M102.879 43.9671L94.837 62.3378H91.4401L83.3986 43.9671H86.8648L93.1732 58.6984L99.6203 43.9671H102.879Z"/>
</symbol><symbol viewBox="0 0 147 44" id="partners-05" xmlns="http://www.w3.org/2000/svg">
    <path d="M1.86231 0.357483L1.8623 43.6589" stroke-width="3"/>
    <path d="M21.1852 16.1623H26.3653V18.1222H18.7456V6.28192H21.1852V16.1623Z"/>
    <path d="M41.2811 15.6826H37.0036L36.1904 18.1222H33.5963L38.0039 6.28192H40.2646L44.6965 18.1222H42.1024L41.2811 15.6826ZM37.6623 13.7065H40.6224L39.1342 9.27451L37.6623 13.7065Z"/>
    <path d="M56.205 15.1865L58.8886 6.28192H61.6047L57.4817 18.1222H54.9364L50.8297 6.28192H53.5377L56.205 15.1865Z"/>
    <path d="M76.5123 12.9908H71.8283V16.1623H77.3255V18.1222H69.3886V6.28192H77.3092V8.25801H71.8283V11.0798H76.5123V12.9908Z"/>
    <path d="M95.0468 18.1222H92.6072L87.8581 10.3317V18.1222H85.4185V6.28192H87.8581L92.6153 14.0887V6.28192H95.0468V18.1222Z"/>
    <path d="M103.839 18.1222V6.28192H107.482C108.523 6.28192 109.453 6.51775 110.272 6.98941C111.096 7.45564 111.738 8.12247 112.199 8.98989C112.66 9.85188 112.89 10.8331 112.89 11.9337V12.4785C112.89 13.5791 112.662 14.5576 112.207 15.4142C111.757 16.2708 111.12 16.9349 110.296 17.4065C109.472 17.8782 108.542 18.1167 107.507 18.1222H103.839ZM106.279 8.25801V16.1623H107.458C108.412 16.1623 109.141 15.8506 109.645 15.2272C110.15 14.6037 110.407 13.7119 110.418 12.5517V11.9256C110.418 10.722 110.169 9.81122 109.67 9.19319C109.171 8.56973 108.442 8.25801 107.482 8.25801H106.279Z"/>
    <path d="M128.456 12.9908H123.772V16.1623H129.27V18.1222H121.333V6.28192H129.253V8.25801H123.772V11.0798H128.456V12.9908Z"/>
    <path d="M141.746 13.7878H139.802V18.1222H137.363V6.28192H141.762C143.161 6.28192 144.24 6.59365 144.999 7.21711C145.758 7.84056 146.137 8.72153 146.137 9.86002C146.137 10.6678 145.961 11.3428 145.609 11.8849C145.262 12.4216 144.733 12.8499 144.023 13.1698L146.584 18.0083V18.1222H143.966L141.746 13.7878ZM139.802 11.8117H141.77C142.383 11.8117 142.857 11.6572 143.193 11.3482C143.529 11.0337 143.698 10.6027 143.698 10.0552C143.698 9.49678 143.538 9.05765 143.218 8.73779C142.903 8.41794 142.418 8.25801 141.762 8.25801H139.802V11.8117Z"/>
    <path d="M25.4301 36.7781H21.1527L20.3395 39.2177H17.7454L22.1529 27.3775H24.4136L28.8456 39.2177H26.2515L25.4301 36.7781ZM21.8114 34.802H24.7714L23.2833 30.3701L21.8114 34.802Z"/>
    <path d="M45.8025 37.7214C45.3634 38.2473 44.7426 38.6566 43.9403 38.9494C43.1379 39.2367 42.2488 39.3804 41.273 39.3804C40.2483 39.3804 39.3484 39.1581 38.5731 38.7135C37.8033 38.2636 37.2069 37.613 36.7841 36.7619C36.3666 35.9107 36.1525 34.9105 36.1416 33.7611V32.9561C36.1416 31.7742 36.3395 30.7523 36.7353 29.8903C37.1365 29.0229 37.7111 28.3615 38.4593 27.9061C39.2128 27.4453 40.0938 27.2149 41.1022 27.2149C42.5063 27.2149 43.6041 27.551 44.3957 28.2232C45.1872 28.8901 45.6561 29.8632 45.8025 31.1426H43.4279C43.3195 30.465 43.0783 29.9689 42.7042 29.6545C42.3355 29.34 41.8259 29.1828 41.1754 29.1828C40.3459 29.1828 39.7143 29.4945 39.2806 30.118C38.8469 30.7414 38.6273 31.6685 38.6219 32.8991V33.6554C38.6219 34.8969 38.8577 35.8348 39.3294 36.4691C39.8011 37.1034 40.4923 37.4206 41.4031 37.4206C42.3193 37.4206 42.9725 37.2254 43.3629 36.835V34.7939H41.1428V32.9967H45.8025V37.7214Z"/>
    <path d="M61.5721 34.0864H56.8881V37.2579H62.3853V39.2177H54.4485V27.3775H62.3691V29.3536H56.8881V32.1754H61.5721V34.0864Z"/>
    <path d="M80.1067 39.2177H77.667L72.9179 31.4272V39.2177H70.4783V27.3775H72.9179L77.6752 35.1842V27.3775H80.1067V39.2177Z"/>
    <path d="M98.1939 35.2737C98.1018 36.5477 97.6301 37.5507 96.779 38.2826C95.9332 39.0144 94.8164 39.3804 93.4286 39.3804C91.9106 39.3804 90.7152 38.8708 89.8423 37.8516C88.9749 36.8269 88.5412 35.4228 88.5412 33.6392V32.9154C88.5412 31.7769 88.7418 30.774 89.143 29.9066C89.5442 29.0391 90.1161 28.375 90.8588 27.9142C91.607 27.448 92.4744 27.2149 93.4611 27.2149C94.8273 27.2149 95.9278 27.5808 96.7627 28.3127C97.5976 29.0446 98.0801 30.0719 98.2102 31.3947H95.7706C95.7109 30.6303 95.4968 30.0773 95.1282 29.7358C94.7649 29.3888 94.2092 29.2153 93.4611 29.2153C92.6479 29.2153 92.038 29.5081 91.6314 30.0936C91.2302 30.6737 91.0242 31.5763 91.0133 32.8016V33.6961C91.0133 34.9755 91.2058 35.9107 91.5907 36.5016C91.981 37.0926 92.5937 37.388 93.4286 37.388C94.1821 37.388 94.7432 37.2173 95.1119 36.8757C95.486 36.5287 95.7001 35.9947 95.7543 35.2737H98.1939Z"/>
    <path d="M110.54 32.7121L113.004 27.3775H115.671L111.784 34.924V39.2177H109.304V34.924L105.417 27.3775H108.092L110.54 32.7121Z"/>
</symbol><symbol viewBox="0 0 22 17" id="twitter" xmlns="http://www.w3.org/2000/svg">
    <path d="M21.4572 2.01238C20.6876 2.35373 19.8604 2.58442 18.9924 2.68815C19.8783 2.15701 20.5589 1.31598 20.8793 0.31378C20.05 0.80564 19.1316 1.16278 18.154 1.3552C17.3712 0.52112 16.2559 0 15.0215 0C12.6514 0 10.7297 1.92147 10.7297 4.29155C10.7297 4.6279 10.7677 4.95546 10.8409 5.2696C7.27414 5.0906 4.1118 3.38203 1.99514 0.78551C1.6257 1.41935 1.41406 2.15656 1.41406 2.94309C1.41406 4.43204 2.17169 5.74563 3.32328 6.5153C2.61984 6.4929 1.95801 6.2999 1.37944 5.97846C1.37903 5.99639 1.37903 6.0143 1.37903 6.0324C1.37903 8.1118 2.85838 9.8463 4.82164 10.2406C4.46154 10.3387 4.08239 10.3912 3.69099 10.3912C3.41445 10.3912 3.1456 10.3642 2.88351 10.3142C3.42966 12.0191 5.01458 13.26 6.89259 13.2945C5.42381 14.4457 3.57332 15.1318 1.56258 15.1318C1.21617 15.1318 0.874558 15.1114 0.538818 15.0717C2.43808 16.2894 4.69396 17 7.11755 17C15.0114 17 19.3282 10.4605 19.3282 4.78918C19.3282 4.60314 19.324 4.41805 19.3157 4.23395C20.1543 3.62886 20.8819 2.87302 21.4572 2.01238Z"/>
</symbol><symbol viewBox="0 0 21 15" id="youtube" xmlns="http://www.w3.org/2000/svg">
    <path d="M20.5911 2.20301C20.3611 1.34501 19.6861 0.668007 18.8291 0.437007C17.2631 0.00700739 10.9981 7.5965e-06 10.9981 7.5965e-06C10.9981 7.5965e-06 4.73413 -0.00699261 3.16713 0.404007C2.32713 0.633007 1.63313 1.32501 1.40113 2.18201C0.988133 3.74801 0.984132 6.99601 0.984132 6.99601C0.984132 6.99601 0.980132 10.26 1.39013 11.81C1.62013 12.667 2.29513 13.344 3.15313 13.575C4.73513 14.005 10.9831 14.012 10.9831 14.012C10.9831 14.012 17.2481 14.019 18.8141 13.609C19.6701 13.379 20.3481 12.703 20.5811 11.846C20.9951 10.281 20.9981 7.03401 20.9981 7.03401C20.9981 7.03401 21.0181 3.76901 20.5911 2.20301ZM8.99413 10.005L8.99913 4.00501L14.2061 7.01001L8.99413 10.005Z"/>
</symbol></svg>