<?xml version="1.0" encoding="utf-8"?><svg viewBox="0 0 1920 501" xmlns="http://www.w3.org/2000/svg" xmlns:xlink="http://www.w3.org/1999/xlink"><style>:root>svg{display:none}:root>svg:target{display:block}</style><svg fill="none" viewBox="0 0 1920 477" id="Base_Background" xmlns="http://www.w3.org/2000/svg">
    <path fill="#1A242F" d="M0 0h1920v477H0z"/>
</svg><svg fill="none" viewBox="0 0 9 13" id="arrow-down" xmlns="http://www.w3.org/2000/svg">
    <g clip-path="url(#aa)">
        <path d="M4.5 9.75c.192 0 .384-.08.53-.238l3.75-4.063a.86.86 0 0 0 0-1.148.71.71 0 0 0-1.06 0L4.5 7.79 1.28 4.3a.71.71 0 0 0-1.06 0 .86.86 0 0 0 0 1.15l3.75 4.062a.72.72 0 0 0 .53.237Z" fill="#1AA090"/>
    </g>
    <defs>
        <clipPath id="aa">
            <path fill="#fff" transform="matrix(-1 0 0 1 9 0)" d="M0 0h9v13H0z"/>
        </clipPath>
    </defs>
</svg><svg fill="none" viewBox="0 0 20 20" id="facebook" xmlns="http://www.w3.org/2000/svg">
    <path d="M9.999 0C4.477 0 0 4.477 0 9.999c0 4.99 3.656 9.126 8.437 9.879V12.89h-2.54V9.999h2.54V7.796c0-2.508 1.493-3.891 3.776-3.891 1.094 0 2.24.195 2.24.195v2.459h-1.264c-1.24 0-1.628.772-1.628 1.563v1.875h2.771l-.443 2.891h-2.328v6.988c4.781-.749 8.437-4.886 8.437-9.877C19.998 4.477 15.521 0 9.999 0Z" fill="#555E68"/>
</svg><svg fill="none" viewBox="0 0 196 501" id="hero-overlay" xmlns="http://www.w3.org/2000/svg">
    <path fill="#1AA090" stroke="#121B25" stroke-width="12" d="m92.436 314.033 94.504 86.128-83.436 91.55L9 405.584z"/>
    <path fill="#1AA090" stroke="#121B25" stroke-width="12" d="m92.436 212.355 94.504 86.128-83.436 91.55L9 303.906z"/>
    <path fill="#1AA090" stroke="#121B25" stroke-width="12" d="m92.436 110.678 94.504 86.128-83.436 91.55L9 202.23z"/>
    <path fill="#1AA090" stroke="#121B25" stroke-width="12" d="m92.436 9 94.504 86.128-83.436 91.55L9 100.551z"/>
</svg><svg fill="none" viewBox="0 0 18 19" id="instagram" xmlns="http://www.w3.org/2000/svg">
    <path d="M8.997 4.372a4.623 4.623 0 1 0 0 9.248 4.623 4.623 0 0 0 0-9.248Zm0 7.627a3.004 3.004 0 1 1 0-6.008 3.004 3.004 0 0 1 0 6.008ZM13.804 5.28a1.078 1.078 0 1 0 0-2.156 1.078 1.078 0 0 0 0 2.156Z" fill="#fff"/>
    <path d="M17.531 3.106A4.605 4.605 0 0 0 14.898.474a6.606 6.606 0 0 0-2.186-.42C11.749.012 11.444 0 9.002 0s-2.755 0-3.71.054a6.554 6.554 0 0 0-2.184.42A4.6 4.6 0 0 0 .475 3.106a6.585 6.585 0 0 0-.419 2.186C.013 6.254 0 6.559 0 9.002c0 2.442 0 2.753.056 3.71.015.748.156 1.486.419 2.187a4.61 4.61 0 0 0 2.634 2.632 6.584 6.584 0 0 0 2.185.45c.963.042 1.268.055 3.71.055s2.755 0 3.71-.055a6.615 6.615 0 0 0 2.186-.419 4.613 4.613 0 0 0 2.633-2.633c.263-.7.404-1.438.419-2.186.043-.962.056-1.267.056-3.71s0-2.753-.056-3.71a6.581 6.581 0 0 0-.421-2.217Zm-1.218 9.532a5.043 5.043 0 0 1-.311 1.688 2.987 2.987 0 0 1-1.712 1.711 4.985 4.985 0 0 1-1.67.311c-.95.044-1.218.055-3.654.055-2.438 0-2.687 0-3.655-.055a4.96 4.96 0 0 1-1.669-.311 2.985 2.985 0 0 1-1.719-1.711 5.08 5.08 0 0 1-.311-1.669c-.043-.95-.053-1.218-.053-3.654 0-2.437 0-2.686.053-3.655a5.038 5.038 0 0 1 .311-1.687c.305-.789.93-1.41 1.719-1.712a5.01 5.01 0 0 1 1.669-.311c.951-.043 1.218-.055 3.655-.055s2.687 0 3.654.055a4.96 4.96 0 0 1 1.67.311 2.991 2.991 0 0 1 1.712 1.712 5.08 5.08 0 0 1 .311 1.669c.043.951.054 1.218.054 3.655 0 2.436 0 2.698-.043 3.654h-.011v-.001Z" fill="#fff"/>
</svg><svg fill="none" viewBox="0 0 184 41" id="partners-01" xmlns="http://www.w3.org/2000/svg">
    <path d="M0 9.848h4.346l4.617 13.547c1.426-4.492 4.888-14.26 6.178-16.685 1.97-3.779 5.432-5.49 9.71-4.848l-.475 4.278c-2.648-.428-4.482.428-5.568 2.71-2.173 4.064-7.605 21.818-7.673 21.961l-.271.214-3.531.071L0 9.848ZM27.295 13.27H24.58V9.42h9.71v3.85h-2.92v13.405h-4.074V13.27ZM24.58 27.317h9.71v3.85h-9.71v-3.85ZM42.574 9.847h4.21l6.518 12.55V9.847h4.074v21.178l-.272.142h-3.938l-6.518-12.62v12.62h-4.074V9.847ZM78.22 18.403H62.469v4.136h15.753v-4.136Z" fill="#83898F"/>
    <path fill-rule="evenodd" clip-rule="evenodd" d="M183.198.62H89.934v39.97h93.264V.62Zm-18.093 22.998v3.28h9.166v4.279h-13.308v-7.559h-2.376V19.34h12.629v4.278h-6.111Zm0-9.838h8.555V9.5h-12.697v9.056h4.142V13.78Zm-68.51.355h6.111v17.042h4.142V14.135h6.179v-4.35H96.596v4.35Zm48.887 7.132v3.779h4.617c-1.087 1.14-2.445 1.854-4.074 1.854-3.327 0-6.043-2.852-6.043-6.346s2.716-6.346 6.043-6.346c2.308 0 4.413 1.354 5.432 3.565l3.598-2.068c-1.765-3.565-5.228-5.776-9.03-5.776-5.636 0-10.117 4.778-10.117 10.625s4.549 10.695 10.117 10.695c3.87 0 7.469-2.068 9.098-6.132v-3.85h-9.641Zm-23.153-11.124 3.802-.072 7.265 21.249H115.132c2.376-5.42 7.197-21.177 7.197-21.177Zm2.037 7.63a242.336 242.336 0 0 1-3.327 9.696h6.654l-3.327-9.697Z" fill="#83898F"/>
</svg><svg fill="none" viewBox="0 0 136 33" id="partners-02" xmlns="http://www.w3.org/2000/svg">
    <path d="M23.856 1.812h-5.38L11.986 18.65 5.5 1.811H.2l11.788 30.573L23.856 1.812ZM35.804 1.812h-4.985v30.572h4.985V1.812ZM53.685 24.537c6.014 0 10.998-5.069 10.998-11.363 0-6.212-4.905-11.362-10.998-11.362-6.092 0-10.998 5.15-10.998 11.362 0 6.294 4.985 11.363 10.998 11.363Zm0-17.657c3.402 0 6.093 2.78 6.093 6.294 0 3.515-2.69 6.294-6.093 6.294-3.402 0-6.092-2.779-6.092-6.294 0-3.515 2.69-6.294 6.092-6.294ZM63.337 27.316H43.794v5.068h19.543v-5.069ZM87.47 27.316H76.55V1.812h-4.905v30.572H87.47v-5.068ZM114.529 27.316H99.733v-7.684h12.264v-5.068H99.733V6.962h14.796v-5.15H94.748v30.572h19.781v-5.068ZM125.447 32.384h4.906V6.962h4.905v-5.15h-14.795v5.15h4.984v25.422Z" fill="#83898F"/>
    <path d="M53.685 25.844c6.725 0 12.185-5.64 12.185-12.588C65.87 6.308 60.41.667 53.685.667 46.959.667 41.5 6.307 41.5 13.256c-.079 6.948 5.46 12.588 12.185 12.588Zm0-24.523c6.409 0 11.552 5.314 11.552 11.935 0 6.54-5.143 11.934-11.552 11.934s-11.552-5.313-11.552-11.934c0-6.621 5.143-11.935 11.552-11.935Z" fill="#83898F"/>
</svg><svg fill="none" viewBox="0 0 181 48" id="partners-03" xmlns="http://www.w3.org/2000/svg">
    <path d="M22.655 27.057c-.172 2.378-1.053 4.25-2.642 5.616-1.578 1.367-3.663 2.05-6.254 2.05-2.833 0-5.065-.952-6.694-2.854-1.62-1.913-2.429-4.534-2.429-7.863v-1.351c0-2.125.375-3.998 1.124-5.617.749-1.619 1.816-2.859 3.203-3.719 1.396-.87 3.015-1.305 4.857-1.305 2.55 0 4.605.683 6.163 2.049 1.559 1.366 2.46 3.284 2.702 5.753h-4.554c-.111-1.427-.51-2.459-1.199-3.096-.678-.648-1.715-.972-3.112-.972-1.518 0-2.656.546-3.415 1.64-.75 1.082-1.134 2.767-1.154 5.054v1.67c0 2.388.36 4.134 1.078 5.237.728 1.103 1.872 1.655 3.43 1.655 1.407 0 2.454-.32 3.143-.957.698-.647 1.098-1.644 1.199-2.99h4.554ZM45.16 24.84h-8.743v5.92h10.261v3.66H31.863V12.316h14.785v3.689H36.417v5.267h8.743v3.568ZM68.045 29.865h-7.984l-1.518 4.554H53.7l8.228-22.102h4.22L74.42 34.42h-4.843l-1.533-4.554Zm-6.755-3.688h5.526l-2.778-8.273-2.748 8.273ZM97.519 16.006h-6.77v18.413h-4.555V16.006h-6.679v-3.689H97.52v3.689ZM124.335 34.42h-4.554v-9.473h-8.88v9.472h-4.554V12.317h4.554v8.956h8.88v-8.956h4.554V34.42ZM147.842 24.84h-8.743v5.92h10.261v3.66h-14.815V12.316h14.785v3.689h-10.231v5.267h8.743v3.568ZM169.711 28.62c0-.86-.304-1.518-.911-1.973-.607-.465-1.7-.951-3.279-1.457-1.579-.516-2.829-1.022-3.75-1.518-2.509-1.356-3.764-3.183-3.764-5.48 0-1.194.334-2.257 1.002-3.188.678-.941 1.644-1.675 2.899-2.2 1.265-.527 2.682-.79 4.25-.79 1.579 0 2.986.288 4.22.865 1.235.567 2.191 1.371 2.869 2.414.689 1.042 1.033 2.226 1.033 3.552h-4.554c0-1.012-.319-1.797-.957-2.353-.637-.567-1.533-.85-2.686-.85-1.114 0-1.979.238-2.596.713-.618.466-.926 1.083-.926 1.852 0 .719.359 1.32 1.078 1.806.728.486 1.796.942 3.203 1.367 2.59.779 4.478 1.745 5.662 2.899 1.184 1.154 1.776 2.59 1.776 4.311 0 1.913-.724 3.415-2.171 4.509-1.447 1.082-3.395 1.624-5.844 1.624-1.7 0-3.249-.309-4.645-.926-1.397-.628-2.464-1.483-3.203-2.566-.729-1.083-1.093-2.337-1.093-3.764h4.569c0 2.439 1.457 3.658 4.372 3.658 1.083 0 1.928-.218 2.535-.653.607-.445.911-1.062.911-1.852ZM0 0h180.978v2.22H0V0ZM0 45.522h180.978v2.22H0v-2.22Z" fill="#83898F"/>
</svg><svg fill="none" viewBox="0 0 166 66" id="partners-04" xmlns="http://www.w3.org/2000/svg">
    <path d="M16.569 15.736C7.564 15.736.236 23.441.236 32.908c0 9.468 7.328 17.172 16.333 17.172 9.004 0 16.332-7.704 16.332-17.172 0-9.467-7.328-17.172-16.332-17.172Zm8.88 25.007c-.497.457-1.118.915-1.739 1.306-.62.457-1.366.784-2.111 1.176-.745.326-1.615.587-2.484.783-.87.196-1.801.327-2.795.327-1.428 0-2.732-.196-3.788-.523-1.056-.326-1.925-.783-2.608-1.436a5.113 5.113 0 0 1-1.49-2.155c-.311-.849-.497-1.697-.497-2.677 0-1.371.31-2.481.869-3.395.559-.914 1.366-1.698 2.298-2.35-.497-.523-.87-1.176-1.18-1.96a5.957 5.957 0 0 1-.497-2.415c0-.915.186-1.829.497-2.612.31-.784.807-1.502 1.366-2.09a6.652 6.652 0 0 1 2.112-1.37c.807-.327 1.676-.458 2.608-.458 1.055 0 1.987.196 2.794.523.87.326 1.553.783 2.174 1.37.62.588 1.055 1.307 1.366 2.09a7.3 7.3 0 0 1 .497 2.677c0 1.11-.31 2.09-.87 2.938-.558.85-1.242 1.567-2.049 2.22l2.857 2.547c.248-.261.497-.523.745-.849.248-.261.559-.653.931-1.175l4.223 3.787a14.059 14.059 0 0 1-1.49 1.893 11.812 11.812 0 0 1-1.739 1.828Zm-1.615-3.068c-.372.392-.807.718-1.18 1.044a15.657 15.657 0 0 1-2.732 1.502c-1.056.457-2.298.653-3.726.653-.497 0-.994-.065-1.553-.196a5.537 5.537 0 0 1-1.428-.587 2.949 2.949 0 0 1-1.056-1.11c-.31-.458-.434-1.045-.434-1.698 0-.98.248-1.698.807-2.285.497-.588 1.242-1.11 2.236-1.633l.931-.522 4.968 4.31.621-.458-4.844-4.244c1.18-.653 2.112-1.371 2.795-2.154.683-.784 1.056-1.698 1.056-2.808 0-.588-.125-1.11-.31-1.567-.25-.457-.498-.914-.932-1.24a4.046 4.046 0 0 0-1.367-.784c-.496-.196-1.055-.261-1.676-.261-.497 0-.994.065-1.49.26a4.417 4.417 0 0 0-1.305.784c-.372.327-.683.784-.931 1.24-.249.458-.31 1.046-.31 1.633 0 .849.185 1.567.62 2.155.435.653.994 1.24 1.739 1.893l.807.719-.745.391c-.435.262-.931.523-1.304.784-.435.326-.745.653-1.056.98-.31.391-.559.783-.683 1.24-.186.457-.248.98-.248 1.502 0 .718.124 1.37.434 1.958.31.588.684.98 1.18 1.372.497.326 1.056.653 1.677.783.621.196 1.304.261 1.987.261 1.429 0 2.733-.26 3.913-.718a14.058 14.058 0 0 0 2.918-1.632 14.856 14.856 0 0 0 2.485-2.416l-.622-.457-1.242 1.306Zm-9.066-6.595c-.87-.718-1.367-1.371-1.677-1.893a3.621 3.621 0 0 1-.373-1.568c0-.914.31-1.697.87-2.285a3.207 3.207 0 0 1 2.298-.914c.434 0 .869.065 1.242.196.434.13.745.326 1.117.588.31.26.56.587.746.979.186.392.31.849.31 1.371 0 1.045-.31 1.894-.931 2.547-.622.653-1.49 1.24-2.67 1.893l-.932-.914Zm2.173-2.677c.187-.261.31-.588.31-.98 0-.848-.372-1.24-1.18-1.24-.372 0-.62.13-.869.326-.248.262-.31.523-.31.915 0 .326.062.587.186.914.124.26.435.587.808.98a5.674 5.674 0 0 0 1.055-.915Zm-2.484 8.75c0 .522.186.913.621 1.175.373.26.87.391 1.366.391.31 0 .621 0 .994-.065.31-.065.621-.13.931-.261l-3.042-2.742c-.621.391-.87.914-.87 1.501Z" fill="#83898F"/>
    <path d="M17.252 0h-1.367v17.303h1.367V0ZM17.252 46.685h-1.367v19.197h1.367V46.685ZM58.3 29.934c-2.426 0-4.622-.531-6.586-1.594-1.94-1.087-3.466-2.565-4.575-4.437-1.11-1.895-1.664-4.02-1.664-6.378 0-2.357.555-4.471 1.664-6.343 1.109-1.895 2.646-3.374 4.61-4.437 1.964-1.086 4.16-1.629 6.586-1.629 1.895 0 3.627.324 5.199.97a10.474 10.474 0 0 1 4.02 2.808l-2.252 2.184C63.476 9.16 61.2 8.201 58.473 8.201c-1.802 0-3.431.404-4.887 1.213a8.885 8.885 0 0 0-3.432 3.363c-.808 1.409-1.213 2.992-1.213 4.748 0 1.756.405 3.35 1.213 4.783a8.96 8.96 0 0 0 3.432 3.328c1.456.809 3.085 1.213 4.887 1.213 2.704 0 4.98-.97 6.829-2.912l2.253 2.184a10.752 10.752 0 0 1-4.056 2.843c-1.571.646-3.304.97-5.199.97ZM74.163 14.37c.578-1.062 1.433-1.87 2.565-2.425 1.132-.555 2.507-.832 4.125-.832v3.223a6.499 6.499 0 0 0-.763-.034c-1.802 0-3.223.543-4.263 1.629-1.017 1.063-1.525 2.588-1.525 4.575v9.15h-3.328v-18.37h3.19v3.085ZM100.348 20.575c0 .255-.023.59-.069 1.006H85.374c.208 1.617.913 2.923 2.114 3.916 1.225.97 2.739 1.456 4.541 1.456 2.195 0 3.963-.74 5.303-2.218l1.837 2.149c-.831.97-1.871 1.71-3.12 2.218-1.224.508-2.599.763-4.124.763-1.94 0-3.662-.393-5.165-1.179-1.502-.809-2.668-1.93-3.5-3.362-.81-1.433-1.214-3.05-1.214-4.853 0-1.779.393-3.385 1.179-4.818.809-1.432 1.906-2.542 3.293-3.327 1.41-.809 2.992-1.213 4.748-1.213 1.757 0 3.316.404 4.68 1.213 1.386.785 2.46 1.895 3.223 3.327.786 1.433 1.179 3.074 1.179 4.922Zm-9.082-6.655c-1.594 0-2.934.486-4.02 1.456-1.063.97-1.687 2.242-1.872 3.813h11.785c-.185-1.548-.82-2.808-1.906-3.778-1.063-.994-2.392-1.49-3.987-1.49ZM110.111 11.113c2.541 0 4.483.624 5.823 1.871 1.363 1.248 2.045 3.108 2.045 5.581v11.092h-3.154V27.23c-.555.855-1.352 1.514-2.392 1.976-1.017.44-2.23.659-3.64.659-2.056 0-3.708-.497-4.956-1.49-1.225-.994-1.837-2.3-1.837-3.918 0-1.617.589-2.911 1.768-3.882 1.178-.993 3.05-1.49 5.615-1.49h5.268v-.659c0-1.432-.416-2.53-1.248-3.292-.831-.763-2.056-1.144-3.674-1.144a9.455 9.455 0 0 0-3.189.554c-1.039.347-1.917.82-2.634 1.421l-1.386-2.495c.947-.763 2.079-1.34 3.397-1.733a13.848 13.848 0 0 1 4.194-.624Zm-.763 16.187c1.271 0 2.369-.278 3.293-.832.924-.578 1.594-1.387 2.01-2.427v-2.564h-5.13c-2.819 0-4.228.947-4.228 2.842 0 .924.358 1.652 1.074 2.184.716.531 1.71.797 2.981.797ZM133.426 28.582c-.485.416-1.086.74-1.802.97a7.924 7.924 0 0 1-2.219.313c-1.848 0-3.281-.497-4.298-1.49-1.016-.994-1.525-2.416-1.525-4.264V14.024h-3.119v-2.738h3.119v-4.02h3.328v4.02h5.268v2.738h-5.268v9.948c0 .994.242 1.756.728 2.288.508.531 1.224.797 2.149.797 1.016 0 1.883-.289 2.599-.866l1.04 2.391ZM152.403 20.575c0 .255-.023.59-.069 1.006h-14.905c.208 1.617.913 2.923 2.114 3.916 1.225.97 2.739 1.456 4.541 1.456 2.195 0 3.963-.74 5.303-2.218l1.837 2.149c-.832.97-1.871 1.71-3.119 2.218-1.225.508-2.6.763-4.125.763-1.941 0-3.663-.393-5.165-1.179-1.502-.809-2.669-1.93-3.5-3.362-.809-1.433-1.214-3.05-1.214-4.853 0-1.779.393-3.385 1.179-4.818.809-1.432 1.906-2.542 3.293-3.327 1.409-.809 2.992-1.213 4.748-1.213 1.757 0 3.316.404 4.68 1.213a8.13 8.13 0 0 1 3.223 3.327c.786 1.433 1.179 3.074 1.179 4.922Zm-9.082-6.655c-1.594 0-2.934.486-4.02 1.456-1.063.97-1.687 2.242-1.872 3.813h11.785c-.185-1.548-.82-2.808-1.906-3.778-1.063-.994-2.392-1.49-3.987-1.49ZM159.172 14.37c.578-1.062 1.433-1.87 2.565-2.425 1.133-.555 2.508-.832 4.125-.832v3.223a6.497 6.497 0 0 0-.762-.034c-1.803 0-3.224.543-4.264 1.629-1.017 1.063-1.525 2.588-1.525 4.575v9.15h-3.327v-18.37h3.188v3.085ZM50.917 41.09v8.458h12.166v2.98H50.917v9.81h-3.466V38.075h17.123v3.015H50.917ZM73.974 43.794c2.542 0 4.483.624 5.824 1.872 1.363 1.247 2.045 3.108 2.045 5.58v11.092h-3.155V59.91c-.554.855-1.351 1.514-2.391 1.976-1.017.44-2.23.659-3.64.659-2.056 0-3.709-.497-4.956-1.49-1.225-.994-1.837-2.3-1.837-3.917 0-1.618.589-2.912 1.767-3.883 1.179-.993 3.05-1.49 5.615-1.49h5.27v-.659c0-1.432-.417-2.53-1.249-3.292-.832-.763-2.056-1.144-3.674-1.144a9.454 9.454 0 0 0-3.189.554c-1.04.347-1.918.82-2.634 1.421l-1.386-2.495c.947-.763 2.08-1.34 3.396-1.733a13.85 13.85 0 0 1 4.194-.624Zm-.762 16.187c1.27 0 2.368-.278 3.293-.832.924-.578 1.594-1.386 2.01-2.426v-2.565h-5.13c-2.819 0-4.229.947-4.229 2.842 0 .924.359 1.652 1.075 2.184.716.531 1.71.797 2.98.797ZM102.879 43.967l-8.042 18.37H91.44L83.4 43.968h3.466l6.308 14.731 6.447-14.73h3.259Z" fill="#83898F"/>
</svg><svg fill="none" viewBox="0 0 147 44" id="partners-05" xmlns="http://www.w3.org/2000/svg">
    <path d="M1.862.357V43.66" stroke="#83898F" stroke-width="3"/>
    <path d="M21.185 16.162h5.18v1.96h-7.62V6.282h2.44v9.88ZM41.281 15.683h-4.277l-.814 2.44h-2.594l4.408-11.841h2.26l4.432 11.84h-2.594l-.82-2.44Zm-3.619-1.976h2.96l-1.488-4.432-1.472 4.431ZM56.205 15.187l2.684-8.905h2.716l-4.123 11.84h-2.546L50.83 6.282h2.708l2.667 8.905ZM76.512 12.99h-4.684v3.172h5.498v1.96h-7.937V6.282h7.92v1.976h-5.48v2.822h4.683v1.91ZM95.047 18.122h-2.44l-4.749-7.79v7.79h-2.44V6.282h2.44l4.757 7.807V6.282h2.432v11.84ZM103.839 18.122V6.282h3.643c1.041 0 1.971.236 2.79.707a4.865 4.865 0 0 1 1.927 2c.461.863.691 1.844.691 2.945v.545c0 1.1-.228 2.079-.683 2.935a4.836 4.836 0 0 1-1.911 1.993c-.824.471-1.754.71-2.789.715h-3.668Zm2.44-9.864v7.904h1.179c.954 0 1.683-.311 2.187-.935.505-.623.762-1.515.773-2.675v-.626c0-1.204-.249-2.115-.748-2.733-.499-.623-1.228-.935-2.188-.935h-1.203ZM128.456 12.99h-4.684v3.172h5.498v1.96h-7.937V6.282h7.92v1.976h-5.481v2.822h4.684v1.91ZM141.746 13.788h-1.944v4.334h-2.439V6.282h4.399c1.399 0 2.478.312 3.237.935.759.624 1.138 1.505 1.138 2.643 0 .808-.176 1.483-.528 2.025-.347.537-.876.965-1.586 1.285l2.561 4.838v.114h-2.618l-2.22-4.334Zm-1.944-1.976h1.968c.613 0 1.087-.155 1.423-.464.336-.314.505-.745.505-1.293 0-.558-.16-.997-.48-1.317-.315-.32-.8-.48-1.456-.48h-1.96v3.554ZM25.43 36.778h-4.277l-.813 2.44h-2.595l4.408-11.84h2.26l4.433 11.84H26.25l-.82-2.44Zm-3.619-1.976h2.96l-1.488-4.432-1.472 4.432ZM45.803 37.721c-.44.526-1.06.936-1.863 1.228-.802.288-1.691.431-2.667.431-1.025 0-1.925-.222-2.7-.666-.77-.45-1.366-1.101-1.789-1.952-.417-.851-.631-1.852-.642-3v-.806c0-1.182.197-2.204.593-3.066.401-.867.976-1.529 1.724-1.984.754-.46 1.635-.691 2.643-.691 1.404 0 2.502.336 3.294 1.008.791.667 1.26 1.64 1.407 2.92h-2.375c-.108-.678-.35-1.174-.724-1.489-.368-.314-.878-.471-1.529-.471-.83 0-1.46.311-1.894.935-.434.623-.654 1.55-.66 2.781v.756c0 1.242.237 2.18.708 2.814.472.634 1.163.952 2.074.952.916 0 1.57-.196 1.96-.586v-2.041h-2.22v-1.797h4.66v4.724ZM61.572 34.086h-4.684v3.172h5.497v1.96H54.45v-11.84h7.92v1.976h-5.48v2.821h4.683v1.911ZM80.107 39.218h-2.44l-4.75-7.79v7.79h-2.439v-11.84h2.44l4.757 7.806v-7.806h2.432v11.84ZM98.194 35.274c-.092 1.274-.564 2.277-1.415 3.009-.846.731-1.963 1.097-3.35 1.097-1.518 0-2.714-.51-3.587-1.528-.867-1.025-1.3-2.43-1.3-4.213v-.724c0-1.138.2-2.141.601-3.008.401-.868.973-1.532 1.716-1.993.748-.466 1.615-.7 2.602-.7 1.366 0 2.467.367 3.302 1.099s1.317 1.759 1.447 3.082h-2.44c-.06-.765-.273-1.318-.642-1.66-.363-.346-.919-.52-1.667-.52-.813 0-1.423.293-1.83.879-.4.58-.607 1.482-.618 2.708v.894c0 1.28.193 2.215.578 2.806.39.59 1.003.886 1.838.886.753 0 1.314-.17 1.683-.512.374-.347.588-.881.642-1.602h2.44ZM110.54 32.712l2.464-5.335h2.667l-3.887 7.547v4.294h-2.48v-4.294l-3.887-7.546h2.675l2.448 5.334Z" fill="#83898F"/>
</svg><svg fill="none" viewBox="0 0 22 17" id="twitter" xmlns="http://www.w3.org/2000/svg">
    <path d="M21.457 2.012a8.58 8.58 0 0 1-2.465.676A4.305 4.305 0 0 0 20.88.314a8.591 8.591 0 0 1-2.725 1.041 4.292 4.292 0 0 0-7.313 3.914A12.184 12.184 0 0 1 1.995.787a4.271 4.271 0 0 0-.58 2.157 4.29 4.29 0 0 0 1.908 3.572 4.276 4.276 0 0 1-1.944-.537v.054c0 2.08 1.48 3.814 3.443 4.209a4.296 4.296 0 0 1-1.938.073 4.296 4.296 0 0 0 4.009 2.98 8.61 8.61 0 0 1-5.33 1.838c-.347 0-.688-.02-1.024-.06A12.147 12.147 0 0 0 7.118 17c7.893 0 12.21-6.54 12.21-12.21 0-.187-.004-.372-.012-.556a8.719 8.719 0 0 0 2.141-2.222Z" fill="#555E68"/>
</svg><svg fill="none" viewBox="0 0 21 15" id="youtube" xmlns="http://www.w3.org/2000/svg">
    <path d="M20.591 2.203A2.506 2.506 0 0 0 18.83.437C17.263.007 11 0 11 0S4.733-.007 3.166.404a2.56 2.56 0 0 0-1.766 1.778C.988 3.748.984 6.996.984 6.996S.98 10.26 1.39 11.81c.23.857.905 1.534 1.763 1.765 1.582.43 7.83.437 7.83.437s6.265.007 7.831-.403a2.515 2.515 0 0 0 1.767-1.763c.414-1.565.417-4.812.417-4.812s.02-3.265-.407-4.831ZM8.994 10.005l.005-6 5.207 3.005-5.212 2.995Z" fill="#555E68"/>
</svg></svg>